<svg xmlns="http://www.w3.org/2000/svg" width="42.875" height="33" viewBox="0 0 42.875 33">
  <g id="Group_87" data-name="Group 87" transform="translate(-246.625 -767)">
    <g id="Path_31" data-name="Path 31" transform="translate(251 767)" fill="#fff" stroke-linejoin="round">
      <path d="M 33.99991607666016 32.50034332275391 L 0.9999961256980896 32.50034332275391 C 0.7242961525917053 32.50034332275391 0.4999961256980896 32.27604293823242 0.4999961256980896 32.00034332275391 L 0.4999961256980896 1.000001668930054 C 0.4999961256980896 0.7243016362190247 0.7242961525917053 0.5000016689300537 0.9999961256980896 0.5000016689300537 L 10.18894577026367 0.5000016689300537 L 33.99991607666016 0.5000016689300537 C 34.27561569213867 0.5000016689300537 34.49991607666016 0.7243016362190247 34.49991607666016 1.000001668930054 L 34.49991607666016 32.00034332275391 C 34.49991607666016 32.27604293823242 34.27561569213867 32.50034332275391 33.99991607666016 32.50034332275391 Z" stroke="none"/>
      <path d="M 0.9999961853027344 1 L 0.9999961853027344 32.00034332275391 L 33.99991607666016 32.00034332275391 L 33.99991607666016 1 L 0.9999961853027344 1 M 0.9999961853027344 0 L 33.99991607666016 0 C 34.55219650268555 0 34.99991607666016 0.4477119445800781 34.99991607666016 1 L 34.99991607666016 32.00034332275391 C 34.99991607666016 32.55263137817383 34.55219650268555 33.00034332275391 33.99991607666016 33.00034332275391 L 0.9999961853027344 33.00034332275391 C 0.4477157592773438 33.00034332275391 -3.814697265625e-06 32.55263137817383 -3.814697265625e-06 32.00034332275391 L -3.814697265625e-06 1 C -3.814697265625e-06 0.4477119445800781 0.4477157592773438 0 0.9999961853027344 0 Z" stroke="none" fill="#707070"/>
    </g>
    <g id="Ellipse_8" data-name="Ellipse 8" transform="translate(281.625 779)" fill="#fff" stroke="#707070" stroke-linejoin="round" stroke-width="1">
      <ellipse cx="3.938" cy="4.5" rx="3.938" ry="4.5" stroke="none"/>
      <ellipse cx="3.938" cy="4.5" rx="3.438" ry="4" fill="none"/>
    </g>
    <g id="Path_12" data-name="Path 12" transform="translate(246.625 779)" fill="#fff" stroke-linejoin="round">
      <path d="M 3.93753981590271 8.500161170959473 C 2.042069911956787 8.500161170959473 0.4999998211860657 6.705731391906738 0.4999998211860657 4.500081539154053 C 0.4999998211860657 2.294431447982788 2.042069911956787 0.5000015497207642 3.93753981590271 0.5000015497207642 C 5.833009719848633 0.5000015497207642 7.37507963180542 2.294431447982788 7.37507963180542 4.500081539154053 C 7.37507963180542 5.500471591949463 7.061039924621582 6.392221450805664 6.386769771575928 7.306451320648193 L 6.384049892425537 7.31015157699585 L 6.381389617919922 7.313891410827637 C 5.962430000305176 7.904361724853516 5.044289588928223 8.500161170959473 3.93753981590271 8.500161170959473 Z" stroke="none"/>
      <path d="M 3.93753981590271 1.000001907348633 C 2.317770004272461 1.000001907348633 1 2.570131301879883 1 4.500081539154053 C 1 6.430031776428223 2.317770004272461 8.000161170959473 3.93753981590271 8.000161170959473 C 4.860849857330322 8.000161170959473 5.640210151672363 7.494441509246826 5.973609924316406 7.024561405181885 C 5.977149963378906 7.019571304321289 5.980739593505859 7.01461124420166 5.98436975479126 7.009681701660156 C 6.592049598693848 6.185731887817383 6.87507963180542 5.38828182220459 6.87507963180542 4.500081539154053 C 6.87507963180542 2.570131301879883 5.557310104370117 1.000001907348633 3.93753981590271 1.000001907348633 M 3.93753981590271 1.9073486328125e-06 C 6.112179756164551 1.9073486328125e-06 7.87507963180542 2.014751434326172 7.87507963180542 4.500081539154053 C 7.87507963180542 5.591141700744629 7.535329818725586 6.591511726379395 6.789169788360596 7.603231430053711 C 6.247900009155273 8.366081237792969 5.157509803771973 9.000161170959473 3.93753981590271 9.000161170959473 C 1.762899875640869 9.000161170959473 0 6.985411643981934 0 4.500081539154053 C 0 2.014751434326172 1.762899875640869 1.9073486328125e-06 3.93753981590271 1.9073486328125e-06 Z" stroke="none" fill="#707070"/>
    </g>
    <path id="Polygon_1" data-name="Polygon 1" d="M7.753,2.03a2,2,0,0,1,3.158,0l5.243,6.742A2,2,0,0,1,14.575,12H4.089A2,2,0,0,1,2.51,8.772Z" transform="translate(276.5 774.168) rotate(90)" fill="none" stroke="#707070" stroke-width="1"/>
  </g>
</svg>
